<?xml version="1.0" encoding="UTF-8"?><svg id="Layer_1" xmlns="http://www.w3.org/2000/svg" viewBox="0 0 576.97 70.87"><defs><style>.cls-1{fill:#009df0;}</style></defs><path class="cls-1" d="m182.45,37.63h-8.61v7.45h8.86c3.31,0,5.3-1.16,5.3-3.67s-1.71-3.78-5.56-3.78h0ZM49.47,24.44h-7.45v9.73h7.59c3.63,0,5.7-1.93,5.7-4.79v-.11c0-3.2-2.22-4.83-5.85-4.83h0Zm136.61,3.41c0-2.4-1.71-3.6-4.87-3.6h-7.37v7.16h6.9c3.31,0,5.34-1.05,5.34-3.56h0Zm-101.09,9.59h9.41l-4.72-11.22-4.69,11.22Zm12.17,6.57h-14.93l-2.36,5.59c-.62,1.49-1.78,2.32-3.31,2.32-1.96,0-3.6-1.45-3.6-3.41,0-.54.18-1.16.44-1.71l11.84-26.7c.84-1.85,2.29-2.94,4.54-2.94s3.74,1.09,4.58,2.94l11.8,26.7c.25.54.44,1.16.44,1.71,0,1.96-1.67,3.41-3.67,3.41-1.56,0-2.76-.84-3.38-2.32l-2.4-5.59Zm229.81,26.84c10.17,0,14.53-4.36,14.53-14.53V14.53c0-10.17-4.36-14.53-14.53-14.53h-72.14l-31.2,37.56-1.16-.54,2.91-12.86c-.47-.11-.94-.15-1.45-.15-6.03,0-10.21,4.76-10.21,10.57v.11c0,5.81,4.29,10.64,10.28,10.64s10.17-4.72,10.17-10.53v-.11c0-1.09-.15-2.14-.44-3.09l6.36-5.01c1.2,2.4,1.89,5.12,1.89,7.99v.11c0,9.63-7.59,17.54-18.05,17.54s-17.98-7.81-17.98-17.43v-.11c0-9.66,7.59-17.54,18.05-17.54,1.02,0,2,.07,2.94.18l4-17.33H14.53C4.36,0,0,4.36,0,14.53v41.81c0,10.17,4.36,14.53,14.53,14.53h312.45Zm-174.97-22.74c0,2.47-1.56,3.81-3.7,3.81s-3.7-1.35-3.7-3.81v-16.85l-6.54,10.1c-.76,1.16-1.74,1.89-3.09,1.89s-2.36-.73-3.12-1.89l-6.43-9.95v16.71c0,2.47-1.56,3.81-3.71,3.81s-3.7-1.35-3.7-3.81v-27.17c0-2.36,2.07-3.49,4.03-3.49,1.85,0,3.2.69,4.1,2.18l8.9,14.49,8.9-14.49c.91-1.49,2.18-2.18,4.03-2.18,1.96,0,4.03,1.13,4.03,3.49v27.17Zm30.33-30.44c3.85,0,6.94,1.09,8.9,3.05,1.53,1.53,2.29,3.49,2.29,5.74,0,3.92-2.03,6.07-4.47,7.41,3.92,1.49,6.36,3.78,6.36,8.35,0,6.32-5.05,9.41-12.71,9.41h-12.42c-2.14,0-3.7-1.34-3.7-3.81v-26.33c0-2.47,1.56-3.81,3.7-3.81h12.06Zm-147.72,3.81c0-2.47,1.49-3.81,3.63-3.81h11.84c4.32,0,7.66,1.24,9.92,3.45,1.85,1.89,2.91,4.58,2.91,7.77v.07c0,5.34-2.69,8.65-6.79,10.35l5.12,6.21c.73.91,1.27,1.63,1.27,2.8,0,2.07-1.89,3.6-3.78,3.6-1.67,0-2.58-.84-3.45-1.96l-7.26-9.19h-5.99v7.34c0,2.47-1.56,3.81-3.7,3.81s-3.7-1.35-3.7-3.81v-26.62Zm223.93,30.15c-2.14,0-3.7-1.34-3.7-3.81v-26.59c0-2.47,1.56-3.81,3.7-3.81s3.7,1.34,3.7,3.81v23.61h13.88c1.96,0,3.38,1.34,3.38,3.41s-1.42,3.38-3.38,3.38h-17.58Zm34.58,0c-2.14,0-3.7-1.34-3.7-3.81v-26.59c0-2.47,1.56-3.81,3.7-3.81s3.71,1.34,3.71,3.81v23.61h13.91c1.96,0,3.38,1.34,3.38,3.41s-1.42,3.38-3.38,3.38h-17.62Z"/><g><path class="cls-1" d="m377.06,18.07c0-.45.37-.82.8-.82h5.31c1.64,0,2.93.47,3.75,1.27.59.61.92,1.37.92,2.29v.04c0,1.87-1.15,2.83-2.27,3.32,1.7.51,3.07,1.5,3.07,3.46v.04c0,2.46-2.07,3.91-5.21,3.91h-5.57c-.43,0-.8-.37-.8-.82v-12.71Zm5.84,5.57c1.95,0,3.3-.88,3.3-2.56v-.04c0-1.41-1.13-2.34-3.18-2.34h-4.37v4.94h4.24Zm.57,6.5c2.17,0,3.52-.96,3.52-2.56v-.04c0-1.56-1.31-2.46-3.81-2.46h-4.53v5.06h4.82Z"/><path class="cls-1" d="m391.6,21.69c0-.43.35-.8.78-.8s.8.35.8.8v1.99c.78-1.76,2.32-2.83,3.65-2.83.47,0,.78.35.78.8s-.29.74-.7.8c-2.05.25-3.73,1.78-3.73,4.84v3.61c0,.43-.33.8-.78.8s-.8-.35-.8-.8v-9.2Z"/><path class="cls-1" d="m399.9,17.68c0-.51.41-.84.92-.84s.94.33.94.84v.27c0,.49-.41.84-.94.84s-.92-.35-.92-.84v-.27Zm.14,4.02c0-.43.35-.8.78-.8s.8.35.8.8v9.2c0,.45-.33.8-.78.8s-.8-.35-.8-.8v-9.2Z"/><path class="cls-1" d="m405.56,33.66c-.25-.12-.41-.37-.41-.66,0-.35.35-.7.72-.7.14,0,.25.04.35.1,1.11.74,2.38,1.15,3.75,1.15,2.34,0,3.85-1.29,3.85-3.77v-1.25c-.92,1.23-2.21,2.23-4.16,2.23-2.54,0-4.98-1.91-4.98-4.96v-.04c0-3.09,2.46-5,4.98-5,1.99,0,3.28.98,4.14,2.13v-1.21c0-.43.33-.8.78-.8s.8.37.8.8v8.05c0,1.64-.49,2.89-1.35,3.75-.94.94-2.36,1.41-4.04,1.41s-3.09-.43-4.43-1.25Zm8.3-7.87v-.04c0-2.17-1.88-3.59-3.89-3.59s-3.67,1.39-3.67,3.57v.04c0,2.13,1.7,3.61,3.67,3.61s3.89-1.45,3.89-3.59Z"/><path class="cls-1" d="m418.9,17.33c0-.43.35-.8.78-.8s.8.37.8.8v5.51c.7-1.15,1.8-2.07,3.63-2.07,2.56,0,4.06,1.72,4.06,4.24v5.88c0,.45-.35.8-.78.8s-.8-.35-.8-.8v-5.49c0-1.97-1.07-3.2-2.93-3.2s-3.18,1.33-3.18,3.32v5.37c0,.45-.33.8-.78.8s-.8-.35-.8-.8v-13.57Z"/><path class="cls-1" d="m432.09,28.78v-6.39h-.86c-.37,0-.7-.33-.7-.7,0-.39.33-.7.7-.7h.86v-2.5c0-.43.33-.8.78-.8s.8.37.8.8v2.5h2.75c.39,0,.72.33.72.7,0,.39-.33.7-.72.7h-2.75v6.19c0,1.29.72,1.76,1.78,1.76.55,0,.84-.14.96-.14.37,0,.68.31.68.68,0,.29-.18.51-.45.61-.45.18-.94.29-1.56.29-1.7,0-2.99-.84-2.99-2.99Z"/><path class="cls-1" d="m445.96,17.68c0-.51.41-.84.92-.84s.94.33.94.84v.27c0,.49-.41.84-.94.84s-.92-.35-.92-.84v-.27Zm.14,4.02c0-.43.35-.8.78-.8s.8.35.8.8v9.2c0,.45-.33.8-.78.8s-.8-.35-.8-.8v-9.2Z"/><path class="cls-1" d="m461.44,30.89c0,.45-.35.8-.78.8-.45,0-.8-.35-.8-.8v-1.43c-.86,1.27-2.11,2.36-4.06,2.36-2.54,0-5.06-2.01-5.06-5.49v-.04c0-3.46,2.52-5.51,5.06-5.51,1.97,0,3.24,1.07,4.06,2.25v-5.7c0-.45.33-.8.78-.8s.8.35.8.8v13.57Zm-9.08-4.63v.04c0,2.5,1.74,4.1,3.73,4.1s3.83-1.66,3.83-4.1v-.04c0-2.44-1.86-4.08-3.83-4.08s-3.73,1.52-3.73,4.08Z"/><path class="cls-1" d="m469.6,31.84c-2.91,0-5.29-2.23-5.29-5.51v-.04c0-3.05,2.15-5.51,5.08-5.51,3.14,0,4.92,2.56,4.92,5.37,0,.43-.35.74-.74.74h-7.66c.23,2.3,1.84,3.59,3.73,3.59,1.31,0,2.27-.51,3.05-1.23.12-.1.27-.18.45-.18.39,0,.7.31.7.68,0,.18-.08.37-.25.51-1,.96-2.19,1.6-4,1.6Zm3.14-6.13c-.16-1.93-1.27-3.61-3.38-3.61-1.84,0-3.24,1.54-3.44,3.61h6.82Z"/><path class="cls-1" d="m476.3,28.52v-.04c0-2.23,1.84-3.42,4.53-3.42,1.35,0,2.32.18,3.26.45v-.37c0-1.91-1.17-2.89-3.16-2.89-1.07,0-1.97.25-2.75.59-.1.04-.21.06-.29.06-.37,0-.7-.31-.7-.68,0-.33.22-.57.43-.66,1.04-.45,2.11-.72,3.46-.72,1.5,0,2.64.39,3.42,1.17.72.72,1.09,1.74,1.09,3.09v5.8c0,.45-.33.78-.76.78-.45,0-.76-.33-.76-.74v-.96c-.74.96-1.97,1.82-3.83,1.82-1.97,0-3.96-1.13-3.96-3.3Zm7.81-.82v-1.02c-.78-.23-1.82-.45-3.11-.45-1.99,0-3.09.86-3.09,2.19v.04c0,1.33,1.23,2.11,2.66,2.11,1.95,0,3.54-1.19,3.54-2.87Z"/><path class="cls-1" d="m488.4,30.46c-.14-.1-.29-.31-.29-.57,0-.37.31-.68.7-.68.14,0,.29.04.39.12,1.09.74,2.21,1.13,3.36,1.13,1.27,0,2.19-.66,2.19-1.68v-.04c0-1.07-1.25-1.48-2.64-1.86-1.66-.47-3.5-1.04-3.5-2.99v-.04c0-1.82,1.52-3.03,3.61-3.03,1.13,0,2.36.35,3.38.9.2.12.39.35.39.66,0,.37-.31.68-.7.68-.14,0-.27-.04-.35-.08-.9-.51-1.86-.82-2.77-.82-1.25,0-2.05.66-2.05,1.54v.04c0,1,1.31,1.39,2.73,1.82,1.64.49,3.4,1.13,3.4,3.03v.04c0,2.01-1.66,3.18-3.77,3.18-1.39,0-2.93-.51-4.08-1.33Z"/><path class="cls-1" d="m499.94,29.34c.55,0,.96.41.96.96v.41c0,.55-.41.98-.96.98s-.98-.43-.98-.98v-.41c0-.55.41-.96.98-.96Z"/><path class="cls-1" d="m376.55,49.87c-.18-.12-.31-.35-.31-.61,0-.45.35-.8.78-.8.21,0,.39.08.49.18,1.35,1.15,2.71,1.7,4.53,1.7,1.93,0,3.2-1.03,3.2-2.44v-.04c0-1.33-.72-2.09-3.73-2.73-3.3-.72-4.82-1.78-4.82-4.14v-.04c0-2.25,1.99-3.91,4.71-3.91,1.89,0,3.26.47,4.57,1.41.16.12.35.35.35.66,0,.43-.35.78-.78.78-.18,0-.33-.04-.47-.14-1.21-.88-2.38-1.25-3.71-1.25-1.86,0-3.05,1.02-3.05,2.32v.04c0,1.35.74,2.11,3.89,2.79,3.2.7,4.67,1.86,4.67,4.06v.04c0,2.46-2.05,4.06-4.9,4.06-2.09,0-3.83-.66-5.43-1.93Z"/><path class="cls-1" d="m399,50.89c0,.43-.33.8-.78.8s-.78-.35-.78-.8v-1.15c-.72,1.15-1.8,2.07-3.63,2.07-2.56,0-4.06-1.72-4.06-4.24v-5.88c0-.45.33-.8.78-.8s.8.35.8.8v5.49c0,1.97,1.07,3.2,2.93,3.2s3.18-1.33,3.18-3.32v-5.37c0-.45.33-.8.78-.8s.78.35.78.8v9.2Z"/><path class="cls-1" d="m401.97,50.46c-.14-.1-.29-.31-.29-.57,0-.37.31-.68.7-.68.14,0,.29.04.39.12,1.09.74,2.21,1.13,3.36,1.13,1.27,0,2.19-.66,2.19-1.68v-.04c0-1.07-1.25-1.48-2.64-1.87-1.66-.47-3.5-1.04-3.5-2.99v-.04c0-1.82,1.52-3.03,3.61-3.03,1.13,0,2.36.35,3.38.9.2.12.39.35.39.66,0,.37-.31.68-.7.68-.14,0-.27-.04-.35-.08-.9-.51-1.86-.82-2.77-.82-1.25,0-2.05.66-2.05,1.54v.04c0,1,1.31,1.39,2.73,1.82,1.64.49,3.4,1.13,3.4,3.03v.04c0,2.01-1.66,3.18-3.77,3.18-1.39,0-2.93-.51-4.08-1.33Z"/><path class="cls-1" d="m413.1,48.78v-6.39h-.86c-.37,0-.7-.33-.7-.7,0-.39.33-.7.7-.7h.86v-2.5c0-.43.33-.8.78-.8s.8.37.8.8v2.5h2.75c.39,0,.72.33.72.7,0,.39-.33.7-.72.7h-2.75v6.19c0,1.29.72,1.76,1.78,1.76.55,0,.84-.14.96-.14.37,0,.68.31.68.68,0,.29-.18.51-.45.62-.45.18-.94.29-1.56.29-1.7,0-2.99-.84-2.99-2.99Z"/><path class="cls-1" d="m420.03,48.52v-.04c0-2.23,1.84-3.42,4.53-3.42,1.35,0,2.32.18,3.26.45v-.37c0-1.91-1.17-2.89-3.16-2.89-1.07,0-1.97.25-2.75.59-.1.04-.21.06-.29.06-.37,0-.7-.31-.7-.68,0-.33.22-.57.43-.66,1.04-.45,2.11-.72,3.46-.72,1.5,0,2.64.39,3.42,1.17.72.72,1.09,1.74,1.09,3.09v5.8c0,.45-.33.78-.76.78-.45,0-.76-.33-.76-.74v-.96c-.74.96-1.97,1.82-3.83,1.82-1.97,0-3.96-1.13-3.96-3.3Zm7.81-.82v-1.02c-.78-.23-1.82-.45-3.11-.45-1.99,0-3.09.86-3.09,2.19v.04c0,1.33,1.23,2.11,2.66,2.11,1.95,0,3.54-1.19,3.54-2.87Z"/><path class="cls-1" d="m432.7,37.68c0-.51.41-.84.92-.84s.94.33.94.84v.27c0,.49-.41.84-.94.84s-.92-.35-.92-.84v-.27Zm.14,4.02c0-.43.35-.8.78-.8s.8.35.8.8v9.2c0,.45-.33.8-.78.8s-.8-.35-.8-.8v-9.2Z"/><path class="cls-1" d="m438.09,41.69c0-.43.35-.8.78-.8s.8.35.8.8v1.15c.7-1.15,1.8-2.07,3.63-2.07,2.56,0,4.06,1.72,4.06,4.24v5.88c0,.45-.35.8-.78.8s-.8-.35-.8-.8v-5.49c0-1.97-1.07-3.2-2.93-3.2s-3.18,1.33-3.18,3.32v5.37c0,.45-.33.8-.78.8s-.8-.35-.8-.8v-9.2Z"/><path class="cls-1" d="m449.92,48.52v-.04c0-2.23,1.84-3.42,4.53-3.42,1.35,0,2.32.18,3.26.45v-.37c0-1.91-1.17-2.89-3.16-2.89-1.07,0-1.97.25-2.75.59-.1.04-.21.06-.29.06-.37,0-.7-.31-.7-.68,0-.33.22-.57.43-.66,1.04-.45,2.11-.72,3.46-.72,1.5,0,2.64.39,3.42,1.17.72.72,1.09,1.74,1.09,3.09v5.8c0,.45-.33.78-.76.78-.45,0-.76-.33-.76-.74v-.96c-.74.96-1.97,1.82-3.83,1.82-1.97,0-3.96-1.13-3.96-3.3Zm7.81-.82v-1.02c-.78-.23-1.82-.45-3.11-.45-1.99,0-3.09.86-3.09,2.19v.04c0,1.33,1.23,2.11,2.66,2.11,1.95,0,3.54-1.19,3.54-2.87Z"/><path class="cls-1" d="m462.59,37.33c0-.45.35-.8.78-.8s.8.35.8.8v5.8c.86-1.27,2.11-2.36,4.06-2.36,2.54,0,5.06,2.01,5.06,5.49v.04c0,3.46-2.5,5.51-5.06,5.51-1.97,0-3.24-1.07-4.06-2.25v1.33c0,.43-.33.8-.78.8s-.8-.37-.8-.8v-13.57Zm9.08,9v-.04c0-2.5-1.72-4.1-3.73-4.1s-3.83,1.66-3.83,4.08v.04c0,2.46,1.87,4.1,3.83,4.1s3.73-1.52,3.73-4.08Z"/><path class="cls-1" d="m476.35,37.33c0-.43.35-.8.78-.8s.8.37.8.8v13.57c0,.45-.33.8-.78.8s-.8-.35-.8-.8v-13.57Z"/><path class="cls-1" d="m486.22,51.84c-2.91,0-5.29-2.23-5.29-5.51v-.04c0-3.05,2.15-5.51,5.08-5.51,3.14,0,4.92,2.56,4.92,5.37,0,.43-.35.74-.74.74h-7.66c.23,2.3,1.84,3.59,3.73,3.59,1.31,0,2.27-.51,3.05-1.23.12-.1.27-.18.45-.18.39,0,.7.31.7.68,0,.18-.08.37-.25.51-1,.96-2.19,1.6-4,1.6Zm3.14-6.13c-.16-1.93-1.27-3.61-3.38-3.61-1.84,0-3.24,1.54-3.44,3.61h6.82Z"/><path class="cls-1" d="m499.22,46.35v-.04c0-2.99,2.34-5.53,5.43-5.53,1.76,0,2.95.68,3.89,1.54.12.1.25.31.25.55,0,.43-.35.76-.76.76-.2,0-.39-.08-.51-.18-.76-.7-1.62-1.27-2.89-1.27-2.15,0-3.79,1.82-3.79,4.1v.04c0,2.29,1.68,4.12,3.89,4.12,1.21,0,2.17-.55,2.95-1.29.1-.1.25-.21.45-.21.39,0,.72.35.72.72,0,.18-.08.37-.21.49-1,1-2.21,1.7-4,1.7-3.09,0-5.43-2.52-5.43-5.49Z"/><path class="cls-1" d="m511.58,37.33c0-.43.35-.8.78-.8s.8.37.8.8v5.51c.7-1.15,1.8-2.07,3.63-2.07,2.56,0,4.06,1.72,4.06,4.24v5.88c0,.45-.35.8-.78.8s-.8-.35-.8-.8v-5.49c0-1.97-1.07-3.2-2.93-3.2s-3.18,1.33-3.18,3.32v5.37c0,.45-.33.8-.78.8s-.8-.35-.8-.8v-13.57Z"/><path class="cls-1" d="m523.41,48.52v-.04c0-2.23,1.84-3.42,4.53-3.42,1.35,0,2.32.18,3.26.45v-.37c0-1.91-1.17-2.89-3.16-2.89-1.07,0-1.97.25-2.75.59-.1.04-.21.06-.29.06-.37,0-.7-.31-.7-.68,0-.33.22-.57.43-.66,1.04-.45,2.11-.72,3.46-.72,1.5,0,2.64.39,3.42,1.17.72.72,1.09,1.74,1.09,3.09v5.8c0,.45-.33.78-.76.78-.45,0-.76-.33-.76-.74v-.96c-.74.96-1.97,1.82-3.83,1.82-1.97,0-3.96-1.13-3.96-3.3Zm7.81-.82v-1.02c-.78-.23-1.82-.45-3.11-.45-1.99,0-3.09.86-3.09,2.19v.04c0,1.33,1.23,2.11,2.66,2.11,1.95,0,3.54-1.19,3.54-2.87Z"/><path class="cls-1" d="m536.08,41.69c0-.43.35-.8.78-.8s.8.35.8.8v1.15c.7-1.15,1.8-2.07,3.63-2.07,2.56,0,4.06,1.72,4.06,4.24v5.88c0,.45-.35.8-.78.8s-.8-.35-.8-.8v-5.49c0-1.97-1.07-3.2-2.93-3.2s-3.18,1.33-3.18,3.32v5.37c0,.45-.33.8-.78.8s-.8-.35-.8-.8v-9.2Z"/><path class="cls-1" d="m548.97,53.66c-.25-.12-.41-.37-.41-.66,0-.35.35-.7.72-.7.14,0,.25.04.35.1,1.11.74,2.38,1.15,3.75,1.15,2.34,0,3.85-1.29,3.85-3.77v-1.25c-.92,1.23-2.21,2.23-4.16,2.23-2.54,0-4.98-1.91-4.98-4.96v-.04c0-3.09,2.46-5,4.98-5,1.99,0,3.28.98,4.14,2.13v-1.21c0-.43.33-.8.78-.8s.8.37.8.8v8.05c0,1.64-.49,2.89-1.35,3.75-.94.94-2.36,1.41-4.04,1.41s-3.09-.43-4.43-1.25Zm8.3-7.87v-.04c0-2.17-1.88-3.59-3.89-3.59s-3.67,1.39-3.67,3.57v.04c0,2.13,1.7,3.61,3.67,3.61s3.89-1.45,3.89-3.59Z"/><path class="cls-1" d="m566.95,51.84c-2.91,0-5.29-2.23-5.29-5.51v-.04c0-3.05,2.15-5.51,5.08-5.51,3.14,0,4.92,2.56,4.92,5.37,0,.43-.35.74-.74.74h-7.66c.23,2.3,1.84,3.59,3.73,3.59,1.31,0,2.27-.51,3.05-1.23.12-.1.27-.18.45-.18.39,0,.7.31.7.68,0,.18-.08.37-.25.51-1,.96-2.19,1.6-4,1.6Zm3.14-6.13c-.16-1.93-1.27-3.61-3.38-3.61-1.84,0-3.24,1.54-3.44,3.61h6.82Z"/><path class="cls-1" d="m575.01,49.34c.55,0,.96.41.96.96v.41c0,.55-.41.98-.96.98s-.98-.43-.98-.98v-.41c0-.55.41-.96.98-.96Z"/></g></svg>
