<?xml version="1.0" encoding="UTF-8"?><svg id="Layer_1" xmlns="http://www.w3.org/2000/svg" viewBox="0 0 341.51 70.87"><defs><style>.cls-1{fill:#009df0;}</style></defs><path class="cls-1" d="m182.45,37.63h-8.61v7.45h8.86c3.31,0,5.3-1.16,5.3-3.67s-1.71-3.78-5.56-3.78h0ZM49.47,24.44h-7.45v9.73h7.59c3.63,0,5.7-1.93,5.7-4.79v-.11c0-3.2-2.22-4.83-5.85-4.83h0Zm136.61,3.41c0-2.4-1.71-3.6-4.87-3.6h-7.37v7.16h6.9c3.31,0,5.34-1.05,5.34-3.56h0Zm-101.09,9.59h9.41l-4.72-11.22-4.69,11.22Zm12.17,6.57h-14.93l-2.36,5.59c-.62,1.49-1.78,2.32-3.31,2.32-1.96,0-3.6-1.45-3.6-3.41,0-.54.18-1.16.44-1.71l11.84-26.7c.84-1.85,2.29-2.94,4.54-2.94s3.74,1.09,4.58,2.94l11.8,26.7c.25.54.44,1.16.44,1.71,0,1.96-1.67,3.41-3.67,3.41-1.56,0-2.76-.84-3.38-2.32l-2.4-5.59Zm229.81,26.84c10.17,0,14.53-4.36,14.53-14.53V14.53c0-10.17-4.36-14.53-14.53-14.53h-72.14l-31.2,37.56-1.16-.54,2.91-12.86c-.47-.11-.94-.15-1.45-.15-6.03,0-10.21,4.76-10.21,10.57v.11c0,5.81,4.29,10.64,10.28,10.64s10.17-4.72,10.17-10.53v-.11c0-1.09-.15-2.14-.44-3.09l6.36-5.01c1.2,2.4,1.89,5.12,1.89,7.99v.11c0,9.63-7.59,17.54-18.05,17.54s-17.98-7.81-17.98-17.43v-.11c0-9.66,7.59-17.54,18.05-17.54,1.02,0,2,.07,2.94.18l4-17.33H14.53C4.36,0,0,4.36,0,14.53v41.81c0,10.17,4.36,14.53,14.53,14.53h312.45Zm-174.97-22.74c0,2.47-1.56,3.81-3.7,3.81s-3.7-1.35-3.7-3.81v-16.85l-6.54,10.1c-.76,1.16-1.74,1.89-3.09,1.89s-2.36-.73-3.12-1.89l-6.43-9.95v16.71c0,2.47-1.56,3.81-3.71,3.81s-3.7-1.35-3.7-3.81v-27.17c0-2.36,2.07-3.49,4.03-3.49,1.85,0,3.2.69,4.1,2.18l8.9,14.49,8.9-14.49c.91-1.49,2.18-2.18,4.03-2.18,1.96,0,4.03,1.13,4.03,3.49v27.17Zm30.33-30.44c3.85,0,6.94,1.09,8.9,3.05,1.53,1.53,2.29,3.49,2.29,5.74,0,3.92-2.03,6.07-4.47,7.41,3.92,1.49,6.36,3.78,6.36,8.35,0,6.32-5.05,9.41-12.71,9.41h-12.42c-2.14,0-3.7-1.34-3.7-3.81v-26.33c0-2.47,1.56-3.81,3.7-3.81h12.06Zm-147.72,3.81c0-2.47,1.49-3.81,3.63-3.81h11.84c4.32,0,7.66,1.24,9.92,3.45,1.85,1.89,2.91,4.58,2.91,7.77v.07c0,5.34-2.69,8.65-6.79,10.35l5.12,6.21c.73.91,1.27,1.63,1.27,2.8,0,2.07-1.89,3.6-3.78,3.6-1.67,0-2.58-.84-3.45-1.96l-7.26-9.19h-5.99v7.34c0,2.47-1.56,3.81-3.7,3.81s-3.7-1.35-3.7-3.81v-26.62Zm223.93,30.15c-2.14,0-3.7-1.34-3.7-3.81v-26.59c0-2.47,1.56-3.81,3.7-3.81s3.7,1.34,3.7,3.81v23.61h13.88c1.96,0,3.38,1.34,3.38,3.41s-1.42,3.38-3.38,3.38h-17.58Zm34.58,0c-2.14,0-3.7-1.34-3.7-3.81v-26.59c0-2.47,1.56-3.81,3.7-3.81s3.71,1.34,3.71,3.81v23.61h13.91c1.96,0,3.38,1.34,3.38,3.41s-1.42,3.38-3.38,3.38h-17.62Z"/></svg>
